<svg width="572" height="116" viewBox="0 0 572 116" fill="none" xmlns="http://www.w3.org/2000/svg">
<path d="M340 0C344.319 0.0581195 348.627 0.383634 352.936 0.669189C355.095 0.810509 357.254 0.938052 359.414 1.06445C360.8 1.1528 362.185 1.24197 363.57 1.33203C365.454 1.45155 365.454 1.45155 367.375 1.57349C371.15 2.01768 374.386 2.85926 378 4C377.67 5.32 377.34 6.64 377 8C374.69 8.33 372.38 8.66 370 9C369.945 9.81155 369.889 10.6231 369.832 11.4592C369.578 15.1605 369.32 18.8615 369.062 22.5625C368.975 23.8393 368.888 25.1161 368.799 26.4316C368.712 27.6724 368.625 28.9131 368.535 30.1914C368.457 31.3278 368.378 32.4642 368.297 33.635C367.99 37.1146 367.524 40.547 367 44C369.437 44.1712 371.875 44.337 374.312 44.5C374.983 44.5477 375.654 44.5954 376.346 44.6445C382.234 45.0315 388.101 45.0494 394 45C394.339 41.0004 394.67 37.0003 395 33C395.095 31.8746 395.191 30.7493 395.289 29.5898C395.771 23.7035 396.116 17.9059 396 12C394.02 11.01 392.04 10.02 390 9C390.33 7.35 390.66 5.7 391 4C403.21 4.99 415.42 5.98 428 7C428.495 8.485 428.495 8.485 429 10C428.67 10.66 428.34 11.32 428 12C425.686 12.7308 423.352 13.4014 421 14C420.342 21.5022 419.69 29.0048 419.044 36.508C418.744 39.9931 418.442 43.478 418.136 46.9626C417.783 50.9812 417.438 55.0003 417.094 59.0195C416.984 60.2533 416.875 61.4871 416.762 62.7583C416.16 69.8601 415.857 76.8729 416 84C417.98 84.99 419.96 85.98 422 87C422 88.32 422 89.64 422 91C414.14 91.1228 406.394 90.7789 398.562 90.125C397.501 90.0464 396.439 89.9677 395.346 89.8867C393.815 89.761 393.815 89.761 392.254 89.6328C391.339 89.5595 390.425 89.4862 389.483 89.4106C386.967 88.9946 385.199 88.2634 383 87C383.625 85.125 383.625 85.125 385 83C386.979 82.2735 388.979 81.6013 391 81C391.055 80.2992 391.111 79.5983 391.168 78.8762C391.421 75.6881 391.679 72.5003 391.938 69.3125C392.068 67.6583 392.068 67.6583 392.201 65.9707C392.288 64.904 392.375 63.8373 392.465 62.7383C392.543 61.759 392.622 60.7797 392.703 59.7708C392.986 57.1315 393.435 54.592 394 52C392.817 51.9394 391.633 51.8788 390.414 51.8164C382.251 51.3875 374.126 50.9174 366 50C366.012 50.6574 366.023 51.3148 366.035 51.9922C366.124 61.3571 365.581 70.6581 365 80C366.98 80.99 368.96 81.98 371 83C371 84.32 371 85.64 371 87C363.113 87.1322 355.356 86.7496 347.5 86.0625C346.43 85.9755 345.36 85.8885 344.258 85.7988C336.39 85.13 336.39 85.13 333 84C333 82.68 333 81.36 333 80C336.96 79.01 336.96 79.01 341 78C341.048 76.9439 341.097 75.8877 341.146 74.7996C341.835 60.4482 342.937 46.1352 344.062 31.8125C344.251 29.3939 344.439 26.9753 344.627 24.5566C345.082 18.7042 345.54 12.852 346 7C345.029 6.71254 344.059 6.42508 343.059 6.12891C342.049 5.75637 341.04 5.38383 340 5C339.062 2.9375 339.062 2.9375 339 1C339.33 0.67 339.66 0.34 340 0Z" fill="#3F826D"/>
<path d="M58.5 17.8125C62.5424 19.7327 63.9161 23.1674 66 27C66.544 27.9243 67.088 28.8485 67.6484 29.8008C72.3859 38.0191 72.3859 38.0191 72 43C67.3414 42.5114 65.0402 40.6735 61.5625 37.625C56.2053 32.946 51.606 29.4434 44.2197 29.6938C41.6174 30.0528 39.2414 30.7415 36.7344 31.5234C35.8446 31.7985 34.9548 32.0735 34.0381 32.3569C33.3655 32.5691 32.6929 32.7814 32 33C32.3181 34.2487 32.3181 34.2487 32.6426 35.5227C33.4281 38.6138 34.2105 41.7057 34.9907 44.7981C35.329 46.136 35.6685 47.4736 36.0093 48.8108C36.4991 50.7337 36.984 52.6578 37.4688 54.582C37.762 55.7394 38.0553 56.8967 38.3574 58.0891C39 61 39 61 39 64C40.9607 63.3824 42.9185 62.7557 44.875 62.125C45.9655 61.777 47.0561 61.4289 48.1797 61.0703C51.0852 60.1882 51.0852 60.1882 53 58C53.2986 55.9523 53.3774 53.9418 53.4609 51.875C54 50 54 50 56.0391 48.75C56.6862 48.5025 57.3333 48.255 58 48C70 65.234 70 65.234 70 72C67.8125 72.25 67.8125 72.25 65 72C64.2369 71.3606 63.4738 70.7212 62.6875 70.0625C59.2268 67.4066 56.2529 66.9007 52 67C50.0689 67.2898 48.1439 67.6225 46.2266 67.9922C45.2451 68.1789 44.2636 68.3657 43.2524 68.5581C42.5091 68.7039 41.7658 68.8498 41 69C41.2423 69.9286 41.4847 70.8572 41.7344 71.814C42.6314 75.2536 43.5251 78.6941 44.418 82.1348C44.8051 83.6249 45.1931 85.1148 45.582 86.6045C46.1403 88.7436 46.6955 90.8834 47.25 93.0234C47.425 93.6912 47.6 94.359 47.7803 95.047C49 99.7723 49 99.7723 49 102C55.0751 101.437 61.452 100.671 67 98C68.2354 96.1334 68.2354 96.1334 69 94C69.6188 92.8656 70.2375 91.7312 70.875 90.5625C73.2719 85.8312 74.6407 80.85 76.0703 75.7578C77 73 77 73 79 71C81.125 71.375 81.125 71.375 83 72C83.0247 76.0934 83.0429 80.1868 83.0549 84.2803C83.06 85.6732 83.0668 87.0661 83.0754 88.459C83.0876 90.4596 83.0927 92.4603 83.0977 94.4609C83.1029 95.6654 83.1081 96.8699 83.1135 98.1108C83 101 83 101 82 103C79.6353 103.433 79.6353 103.433 76.3516 103.77C69.8076 104.617 63.5374 105.995 57.1484 107.637C56.1938 107.881 55.2392 108.126 54.2557 108.378C50.2785 109.405 46.3047 110.444 42.3315 111.486C39.3975 112.252 36.4607 113.007 33.5234 113.762C32.6256 114.001 31.7277 114.241 30.8026 114.487C29.9672 114.701 29.1317 114.915 28.271 115.135C27.5405 115.327 26.8099 115.519 26.0572 115.716C23.7174 116.039 22.2043 115.834 20 115C19.505 114.01 19.505 114.01 19 113C21.0073 109.989 21.8388 109.37 25 108C23.6144 99.7192 21.7677 91.6026 19.7422 83.457C19.4343 82.2074 19.1264 80.9578 18.8091 79.6703C18 76.3867 17.1868 73.1041 16.3728 69.8217C15.539 66.4566 14.7092 63.0906 13.8789 59.7246C12.2563 53.1488 10.6295 46.5741 9 40C6.36 39.67 3.72 39.34 1 39C0.67 37.68 0.34 36.36 0 35C5.59324 32.3896 11.1367 30.8266 17.1328 29.4062C19.0925 28.9285 21.0521 28.4506 23.0117 27.9727C26.0767 27.2329 29.1423 26.4959 32.2085 25.7612C35.185 25.0458 38.159 24.3202 41.1328 23.5938C42.5048 23.2702 42.5048 23.2702 43.9046 22.9401C48.8476 21.7283 53.7315 18.1701 58.5 17.8125Z" fill="#3F826D"/>
<path d="M543 21C544.257 25.4041 543.653 28.5354 542.566 32.9453C542.41 33.597 542.253 34.2487 542.091 34.9201C541.591 36.9909 541.078 39.058 540.562 41.125C540.053 43.1997 539.547 45.275 539.044 47.3513C538.588 49.2306 538.124 51.1078 537.658 52.9849C536.893 55.9741 536.893 55.9741 537 59C537.531 58.6777 538.062 58.3555 538.609 58.0234C543.958 55.7337 550.868 56.1551 556.418 57.6524C562.166 60.243 566.295 64.4816 569.035 70.1367C572.805 80.1826 571.091 89.2489 567 99C562.753 106.311 557.042 111.319 549 114C539.797 114.655 532.739 114.258 525 108.938C524.01 107.978 524.01 107.978 523 107C523 106.34 523 105.68 523 105C521.788 105.217 521.788 105.217 520.551 105.438C519.482 105.623 518.414 105.809 517.312 106C516.257 106.186 515.201 106.371 514.113 106.563C511.321 106.955 508.808 107.236 506 107C505.34 106.34 504.68 105.68 504 105C504.381 97.0835 506.707 89.3471 508.562 81.668C508.918 80.1845 509.273 78.701 509.627 77.2174C510.368 74.1229 511.111 71.0291 511.856 67.9358C512.812 63.9711 513.763 60.0053 514.711 56.0391C515.618 52.2483 516.528 48.4581 517.438 44.668C517.61 43.9462 517.783 43.2244 517.962 42.4808C518.451 40.4415 518.942 38.4027 519.434 36.364C519.852 34.6248 519.852 34.6248 520.279 32.8505C521 30 521 30 522 27C519.525 26.505 519.525 26.505 517 26C517.33 24.68 517.66 23.36 518 22C526.343 20.8081 534.593 20.9072 543 21ZM534 66C532.983 68.4552 532.311 70.5272 531.727 73.082C531.554 73.7738 531.381 74.4656 531.203 75.1784C530.842 76.6395 530.491 78.103 530.15 79.5686C529.628 81.8004 529.073 84.0218 528.512 86.2441C528.165 87.6688 527.82 89.0939 527.477 90.5195C527.312 91.1791 527.148 91.8387 526.978 92.5183C526.036 96.6405 525.837 99.9155 527 104C530.401 106.591 532.239 107.068 536.5 106.688C542.411 103.837 544.873 99.8434 547.262 93.8164C549.86 85.6375 552.617 75.3644 548.66 67.2539C547.032 64.775 547.032 64.775 544 63C539.742 62.4397 537.367 63.3868 534 66Z" fill="#3F826D"/>
<path d="M237 28C238.968 29.9682 238.662 33.3481 239 36C239.592 35.5179 240.183 35.0357 240.793 34.539C241.583 33.9074 242.373 33.2757 243.188 32.625C243.965 31.9985 244.742 31.372 245.543 30.7265C251.329 26.6605 257.079 26.0142 264 27C268.794 29.2473 270.973 33.2892 273 38C273.569 40.716 274.029 43.3254 274.387 46.0664C274.493 46.8229 274.6 47.5794 274.71 48.3588C274.933 49.9491 275.15 51.54 275.363 53.1316C275.687 55.56 276.027 57.986 276.369 60.4121C276.584 61.9634 276.798 63.5148 277.012 65.0664C277.162 66.1478 277.162 66.1478 277.315 67.2511C277.794 70.8592 278.112 74.3594 278 78C279.65 78.33 281.3 78.66 283 79C283 80.32 283 81.64 283 83C279.643 84.1191 277.118 84.1136 273.582 84.0976C272.328 84.0944 271.075 84.0912 269.783 84.0879C268.473 84.0795 267.163 84.0711 265.812 84.0625C264.477 84.0574 263.142 84.0529 261.807 84.0488C258.538 84.037 255.269 84.0205 252 84C252 82.68 252 81.36 252 80C253.32 79.34 254.64 78.68 256 78C255.55 69.7789 254.688 61.6076 253.688 53.4375C253.582 52.4737 253.477 51.51 253.368 50.5171C252.679 45.0792 252.679 45.0792 250.086 40.3398C247.983 38.707 247.983 38.707 244.938 39.125C241.849 39.8882 241.849 39.8882 239 42C238.805 44.7736 238.793 47.3078 238.926 50.0703C238.952 50.8665 238.979 51.6627 239.006 52.4831C239.094 55.0311 239.203 57.5778 239.312 60.125C239.376 61.8502 239.438 63.5754 239.498 65.3007C239.649 69.5346 239.82 73.7673 240 78C241.32 78.66 242.64 79.32 244 80C244 81.32 244 82.64 244 84C240.703 85.0991 238.27 85.1139 234.801 85.0976C233.592 85.0944 232.384 85.0912 231.139 85.0879C229.876 85.0795 228.613 85.0711 227.312 85.0625C225.401 85.0557 225.401 85.0557 223.451 85.0488C220.301 85.037 217.15 85.0205 214 85C214 83.68 214 82.36 214 81C215.98 80.505 215.98 80.505 218 80C218 66.47 218 52.94 218 39C215.03 38.505 215.03 38.505 212 38C212.229 36.1223 212.229 36.1223 213 34C214.886 32.8874 214.886 32.8874 217.332 32.0429C218.654 31.5818 218.654 31.5818 220.002 31.1113C221.393 30.654 221.393 30.654 222.812 30.1875C223.728 29.8633 224.644 29.5391 225.588 29.205C233.199 26.6161 233.199 26.6161 237 28Z" fill="#3F826D"/>
<path d="M462 40C463.26 43.7801 462.669 46.0504 462.004 49.9765C461.891 50.6612 461.779 51.3459 461.663 52.0513C461.183 54.974 460.686 57.8938 460.191 60.8139C458.016 72.351 458.016 72.351 458 84C459.519 86.244 459.519 86.244 462 87C464.602 87.1487 464.602 87.1487 467.25 86.6875C468.142 86.5676 469.034 86.4477 469.953 86.3242C470.629 86.2172 471.304 86.1102 472 86C472.037 85.3657 472.075 84.7315 472.113 84.0781C472.825 73.9679 474.422 64.0051 476 54C474.68 53.34 473.36 52.68 472 52C472.33 50.68 472.66 49.36 473 48C475.498 47.4906 477.998 46.9923 480.5 46.5C481.196 46.3569 481.892 46.2138 482.609 46.0664C487.49 45.1174 492.026 44.7798 497 45C498 46 498 46 498.158 49.4257C498.092 54.4315 497.307 59.2613 496.469 64.1875C496.313 65.1306 496.158 66.0737 495.998 67.0454C495.505 70.0313 495.002 73.0156 494.5 76C494.162 78.035 493.825 80.0702 493.488 82.1054C492.666 87.0714 491.835 92.036 491 97C492.65 97.66 494.3 98.32 496 99C495.67 100.32 495.34 101.64 495 103C491.746 102.611 488.498 102.184 485.25 101.75C484.33 101.64 483.409 101.531 482.461 101.418C475.67 100.483 475.67 100.483 472.422 98.1406C471.024 96.0361 470.356 94.489 470 92C469.469 92.2771 468.938 92.5543 468.391 92.8398C467.331 93.3831 467.331 93.3831 466.25 93.9375C465.206 94.4769 465.206 94.4769 464.141 95.0273C458.374 97.6474 452.23 97.6087 446 97C441.963 95.0171 439.35 92.8342 437 89C434.093 80.2788 436.653 70.2092 438 61.375C438.191 60.0846 438.382 58.7943 438.578 57.4648C439.046 54.3088 439.52 51.154 440 48C438.68 47.34 437.36 46.68 436 46C436 45.01 436 44.02 436 43C454.283 37.9812 454.283 37.9812 462 40Z" fill="#3F826D"/>
<path d="M197 35C202.007 39.3808 204.739 44.4764 206 51C205.875 53.9375 205.875 53.9375 205 56C201.854 58.097 200.642 58.3323 196.992 58.6328C196.005 58.7166 195.017 58.8003 194 58.8867C192.453 59.0046 192.453 59.0046 190.875 59.125C189.363 59.2545 189.363 59.2545 187.82 59.3867C181.859 59.8731 175.98 60.087 170 60C171.87 66.3797 174.053 70.6639 180 74C185.378 75.7185 190.142 75.2497 195.285 73.0195C197.874 71.4805 199.318 69.4633 201 67C202.315 65.6485 203.643 64.3088 205 63C206.125 64.5 206.125 64.5 207 67C205.798 74.4518 202.936 80.1617 196.809 84.8984C189.35 89.4413 180.497 89.9371 172 89C165.727 87.4148 161.182 85.0425 157 80C156.278 79.1956 155.556 78.3912 154.813 77.5625C149.848 70.5443 149.267 61.1261 150.625 52.8125C152.55 44.7688 157.111 38.5548 164 34C174.313 28.8832 187.331 28.0241 197 35ZM171.313 38.375C168.169 42.4368 167.884 46.9892 168 52C168.441 54.2168 168.441 54.2168 169 56C171.48 55.8597 173.959 55.713 176.438 55.5625C177.145 55.5231 177.852 55.4838 178.58 55.4433C182.087 55.5237 182.087 55.5237 185 54C185.456 48.4152 184.602 43.9169 182 39C180.214 36.928 180.214 36.928 178 36C173.902 35.5585 173.902 35.5585 171.313 38.375Z" fill="#3F826D"/>
<path d="M145 35.0001C145 36.3201 145 37.6401 145 39.0001C143.68 39.3301 142.36 39.6601 141 40.0001C140.475 42.2908 139.955 44.5825 139.438 46.8751C139.264 47.635 139.091 48.395 138.912 49.178C137.78 54.2269 136.742 59.2865 135.784 64.3708C135.202 67.4521 134.605 70.5304 134.007 73.6088C133.711 75.1599 133.422 76.7124 133.141 78.2664C132.74 80.4825 132.312 82.6922 131.879 84.9024C131.637 86.1965 131.396 87.4907 131.147 88.824C130 92.0001 130 92.0001 127.527 93.9029C125.091 94.9605 123.066 95.6038 120.438 95.9376C119.694 96.0497 118.95 96.1619 118.184 96.2774C115.019 95.8754 114.097 94.368 112 92.0001C110.749 90.0411 109.562 88.0397 108.426 86.0118C107.938 85.1478 107.938 85.1478 107.44 84.2663C106.748 83.0408 106.06 81.8138 105.373 80.5852C104.306 78.6758 103.229 76.772 102.149 74.8697C99.5757 70.3356 97.0091 65.7977 94.457 61.2515C93.2553 59.1181 92.0374 56.9952 90.8125 54.8751C90.1796 53.7587 89.5466 52.6424 88.8945 51.4922C86.7836 48.7153 85.3184 47.9285 82 47.0001C82.33 46.0101 82.66 45.0201 83 44.0001C90.0442 41.9749 97.2982 41.2333 104.562 40.3751C106.219 40.174 106.219 40.174 107.908 39.9688C110.605 39.6419 113.302 39.3191 116 39.0001C116.495 40.9801 116.495 40.9801 117 43.0001C115.02 43.9901 113.04 44.9801 111 46.0001C112.281 50.1877 113.863 53.8206 116.039 57.6172C116.619 58.6356 117.199 59.654 117.797 60.7032C118.4 61.7499 119.003 62.7966 119.625 63.8751C120.236 64.945 120.847 66.0149 121.477 67.1172C122.98 69.7476 124.488 72.3751 126 75.0001C126.33 75.0001 126.66 75.0001 127 75.0001C128.98 64.4401 130.96 53.8801 133 43.0001C130.69 42.6701 128.38 42.3401 126 42.0001C125.505 40.0201 125.505 40.0201 125 38.0001C131.671 35.9581 137.979 34.8288 145 35.0001Z" fill="#3F826D"/>
<path d="M312 14C312 18.62 312 23.24 312 28C314.846 27.9381 314.846 27.9381 317.75 27.875C321.788 27.7872 324.523 27.8566 328 30C327 33 327 33 325 34C322.793 34.0709 320.583 34.0842 318.375 34.0625C317.186 34.0535 315.998 34.0445 314.773 34.0352C313.858 34.0236 312.943 34.012 312 34C311.975 38.893 311.957 43.7859 311.945 48.679C311.94 50.3424 311.933 52.0058 311.925 53.6692C311.912 56.0646 311.907 58.46 311.902 60.8555C311.897 61.5952 311.892 62.335 311.887 63.0972C311.886 66.8608 312.092 70.3414 313 74C316.332 74.4177 316.332 74.4177 320 74C322.269 71.5812 322.269 71.5812 324 69C324.99 69 325.98 69 327 69C326.566 74.4278 325.527 77.8062 322 82C316.607 85.6374 310.741 86.5734 304.375 85.5977C298.365 84.0863 295.364 82.2085 292 77C290.875 73.6257 290.871 71.0518 290.867 67.4961C290.865 65.548 290.865 65.548 290.863 63.5605C290.865 62.8824 290.867 62.2043 290.87 61.5056C290.875 59.4692 290.87 57.4329 290.863 55.3965C290.87 48.2019 291.07 41.1383 292 34C289.69 33.34 287.38 32.68 285 32C285 30.68 285 29.36 285 28C286.763 27.9691 286.763 27.9691 288.562 27.9375C294.071 27.2586 296.453 23.9574 300 20C301.184 18.8289 302.392 17.6813 303.625 16.5625C304.418 15.8219 304.418 15.8219 305.227 15.0664C307 14 307 14 312 14Z" fill="#3F826D"/>
<path d="M324 69C324.99 69 325.98 69 327 69C326.67 70.32 326.34 71.64 326 73C325.34 73 324.68 73 324 73C322.651 73.6347 321.315 74.2985 320 75C321.812 72 321.812 72 324 69Z" fill="#3F826D"/>
</svg>
