<svg width="16" height="16" viewBox="0 0 16 16" fill="none" xmlns="http://www.w3.org/2000/svg">
<path fill-rule="evenodd" clip-rule="evenodd" d="M4.64592 1.64601C4.69236 1.59945 4.74754 1.5625 4.80828 1.5373C4.86903 1.51209 4.93415 1.49911 4.99992 1.49911C5.06568 1.49911 5.13081 1.51209 5.19155 1.5373C5.2523 1.5625 5.30747 1.59945 5.35392 1.64601L11.3539 7.64601C11.4005 7.69245 11.4374 7.74763 11.4626 7.80838C11.4878 7.86912 11.5008 7.93424 11.5008 8.00001C11.5008 8.06578 11.4878 8.1309 11.4626 8.19164C11.4374 8.25239 11.4005 8.30756 11.3539 8.35401L5.35392 14.354C5.26003 14.4479 5.13269 14.5006 4.99992 14.5006C4.86714 14.5006 4.7398 14.4479 4.64592 14.354C4.55203 14.2601 4.49929 14.1328 4.49929 14C4.49929 13.8672 4.55203 13.7399 4.64592 13.646L10.2929 8.00001L4.64592 2.35401C4.59935 2.30756 4.56241 2.25239 4.5372 2.19164C4.512 2.1309 4.49902 2.06578 4.49902 2.00001C4.49902 1.93424 4.512 1.86912 4.5372 1.80838C4.56241 1.74763 4.59935 1.69245 4.64592 1.64601Z" fill="#717171"/>
</svg>
