<svg width="16" height="16" viewBox="0 0 16 16" fill="none" xmlns="http://www.w3.org/2000/svg">
<path fill-rule="evenodd" clip-rule="evenodd" d="M11.3539 1.64601C11.4005 1.69245 11.4374 1.74763 11.4626 1.80838C11.4878 1.86912 11.5008 1.93424 11.5008 2.00001C11.5008 2.06578 11.4878 2.1309 11.4626 2.19164C11.4374 2.25239 11.4005 2.30756 11.3539 2.35401L5.70692 8.00001L11.3539 13.646C11.4478 13.7399 11.5005 13.8672 11.5005 14C11.5005 14.1328 11.4478 14.2601 11.3539 14.354C11.26 14.4479 11.1327 14.5006 10.9999 14.5006C10.8671 14.5006 10.7398 14.4479 10.6459 14.354L4.64592 8.35401C4.59935 8.30756 4.56241 8.25239 4.5372 8.19164C4.512 8.1309 4.49902 8.06578 4.49902 8.00001C4.49902 7.93424 4.512 7.86912 4.5372 7.80838C4.56241 7.74763 4.59935 7.69245 4.64592 7.64601L10.6459 1.64601C10.6924 1.59945 10.7475 1.5625 10.8083 1.5373C10.869 1.51209 10.9342 1.49911 10.9999 1.49911C11.0657 1.49911 11.1308 1.51209 11.1916 1.5373C11.2523 1.5625 11.3075 1.59945 11.3539 1.64601Z" fill="#717171"/>
</svg>
