<svg width="100%" height="100%" viewBox="0 0 24 24" fill="none" xmlns="http://www.w3.org/2000/svg">
<g clip-path="url(#clip0_219_176)">
<path d="M12 6C12.1989 6 12.3897 6.07902 12.5303 6.21967C12.671 6.36032 12.75 6.55109 12.75 6.75V9C12.75 9.19891 12.671 9.38968 12.5303 9.53033C12.3897 9.67098 12.1989 9.75 12 9.75C11.8011 9.75 11.6103 9.67098 11.4697 9.53033C11.329 9.38968 11.25 9.19891 11.25 9V6.75C11.25 6.55109 11.329 6.36032 11.4697 6.21967C11.6103 6.07902 11.8011 6 12 6ZM5.598 8.598C5.73865 8.4574 5.92938 8.37841 6.12825 8.37841C6.32712 8.37841 6.51785 8.4574 6.6585 8.598L8.031 9.969C8.10073 10.0387 8.15605 10.1215 8.19379 10.2126C8.23152 10.3037 8.25095 10.4014 8.25095 10.5C8.25095 10.5986 8.23152 10.6963 8.19379 10.7874C8.15605 10.8785 8.10073 10.9613 8.031 11.031C7.96127 11.1007 7.87848 11.156 7.78738 11.1938C7.69627 11.2315 7.59862 11.2509 7.5 11.2509C7.40138 11.2509 7.30373 11.2315 7.21262 11.1938C7.12152 11.156 7.03873 11.1007 6.969 11.031L5.598 9.6585C5.4574 9.51785 5.37841 9.32712 5.37841 9.12825C5.37841 8.92938 5.4574 8.73865 5.598 8.598ZM3 15C3 14.8011 3.07902 14.6103 3.21967 14.4697C3.36032 14.329 3.55109 14.25 3.75 14.25H6.129C6.32791 14.25 6.51868 14.329 6.65933 14.4697C6.79998 14.6103 6.879 14.8011 6.879 15C6.879 15.1989 6.79998 15.3897 6.65933 15.5303C6.51868 15.671 6.32791 15.75 6.129 15.75H3.75C3.55109 15.75 3.36032 15.671 3.21967 15.5303C3.07902 15.3897 3 15.1989 3 15ZM17.25 15C17.25 14.8011 17.329 14.6103 17.4697 14.4697C17.6103 14.329 17.8011 14.25 18 14.25H20.25C20.4489 14.25 20.6397 14.329 20.7803 14.4697C20.921 14.6103 21 14.8011 21 15C21 15.1989 20.921 15.3897 20.7803 15.5303C20.6397 15.671 20.4489 15.75 20.25 15.75H18C17.8011 15.75 17.6103 15.671 17.4697 15.5303C17.329 15.3897 17.25 15.1989 17.25 15ZM18.381 8.631C18.2769 8.52794 18.138 8.46768 17.9916 8.46213C17.8452 8.45658 17.7021 8.50613 17.5905 8.601L11.3205 13.965C11.1744 14.0881 11.0558 14.2405 10.9723 14.4123C10.8888 14.5841 10.8423 14.7715 10.8358 14.9624C10.8293 15.1533 10.863 15.3435 10.9346 15.5206C11.0062 15.6977 11.1142 15.8578 11.2515 15.9905C11.3889 16.1233 11.5526 16.2257 11.7321 16.2912C11.9115 16.3566 12.1027 16.3837 12.2933 16.3707C12.4839 16.3576 12.6696 16.3047 12.8385 16.2154C13.0073 16.126 13.1555 16.0022 13.2735 15.852L18.4245 9.4065C18.5138 9.29419 18.5587 9.15298 18.5507 9.00972C18.5427 8.86646 18.4823 8.73114 18.381 8.6295V8.631Z" fill="currentColor"/>
<path fill-rule="evenodd" clip-rule="evenodd" d="M4.8133e-06 15C0.00157287 13.2537 0.384264 11.5288 1.12136 9.94567C1.85846 8.36256 2.9322 6.9594 4.26763 5.83415C5.60306 4.70889 7.16799 3.88867 8.85318 3.43073C10.5384 2.97278 12.3032 2.88816 14.0245 3.18277C15.7457 3.47738 17.382 4.14412 18.8189 5.13645C20.2559 6.12877 21.4589 7.42276 22.3441 8.92809C23.2293 10.4334 23.7753 12.1138 23.9439 13.8519C24.1126 15.5901 23.8998 17.3441 23.3205 18.9915C22.6575 20.871 20.553 21.3945 18.9225 20.8665C16.9635 20.232 14.2125 19.5 12 19.5C9.789 19.5 7.035 20.232 5.0775 20.8665C3.447 21.3945 1.3425 20.871 0.679505 18.9915C0.228557 17.7091 -0.00121271 16.3594 4.8133e-06 15ZM12 4.5C10.3206 4.49956 8.66552 4.90199 7.17377 5.6735C5.68203 6.445 4.39711 7.56308 3.42685 8.9339C2.4566 10.3047 1.82932 11.8883 1.59766 13.5517C1.36601 15.215 1.53673 16.9097 2.0955 18.4935C2.4 19.356 3.48 19.8075 4.6155 19.4385C6.5955 18.7995 9.537 18 12 18C14.463 18 17.406 18.798 19.3845 19.44C20.52 19.8075 21.6 19.356 21.9045 18.4935C22.4633 16.9097 22.634 15.215 22.4023 13.5517C22.1707 11.8883 21.5434 10.3047 20.5732 8.9339C19.6029 7.56308 18.318 6.445 16.8262 5.6735C15.3345 4.90199 13.6794 4.49956 12 4.5Z" fill="currentColor"/>
</g>
<defs>
<clipPath id="clip0_219_176">
<rect width="24" height="24" fill="white"/>
</clipPath>
</defs>
</svg>
