<svg width="100%" height="100%" viewBox="0 0 16 16" fill="none" xmlns="http://www.w3.org/2000/svg">
<g clip-path="url(#clip0_206_83)">
<path d="M12.1458 0.146009C12.1923 0.0994455 12.2474 0.0625027 12.3082 0.0372962C12.3689 0.0120898 12.434 -0.00088501 12.4998 -0.00088501C12.5656 -0.00088501 12.6307 0.0120898 12.6914 0.0372962C12.7522 0.0625027 12.8074 0.0994455 12.8538 0.146009L15.8538 3.14601C15.9004 3.19245 15.9373 3.24763 15.9625 3.30838C15.9877 3.36912 16.0007 3.43424 16.0007 3.50001C16.0007 3.56578 15.9877 3.6309 15.9625 3.69164C15.9373 3.75239 15.9004 3.80756 15.8538 3.85401L5.85381 13.854C5.80582 13.9017 5.74867 13.9391 5.68581 13.964L0.685806 15.964C0.594942 16.0004 0.495402 16.0093 0.399526 15.9896C0.303649 15.9699 0.215653 15.9226 0.146447 15.8534C0.0772403 15.7842 0.0298668 15.6962 0.0101994 15.6003C-0.0094681 15.5044 -0.000564594 15.4049 0.0358061 15.314L2.03581 10.314C2.06073 10.2511 2.09816 10.194 2.14581 10.146L12.1458 0.146009ZM11.2068 2.50001L13.4998 4.79301L14.7928 3.50001L12.4998 1.20701L11.2068 2.50001ZM12.7928 5.50001L10.4998 3.20701L3.99981 9.70701V10H4.49981C4.63241 10 4.75959 10.0527 4.85336 10.1465C4.94713 10.2402 4.99981 10.3674 4.99981 10.5V11H5.49981C5.63241 11 5.75959 11.0527 5.85336 11.1465C5.94713 11.2402 5.99981 11.3674 5.99981 11.5V12H6.29281L12.7928 5.50001ZM3.03181 10.675L2.92581 10.781L1.39781 14.602L5.21881 13.074L5.32481 12.968C5.22943 12.9324 5.1472 12.8685 5.08912 12.7848C5.03104 12.7012 4.99988 12.6018 4.99981 12.5V12H4.49981C4.3672 12 4.24002 11.9473 4.14625 11.8536C4.05248 11.7598 3.99981 11.6326 3.99981 11.5V11H3.49981C3.39799 10.9999 3.29862 10.9688 3.21498 10.9107C3.13135 10.8526 3.06744 10.7704 3.03181 10.675Z" fill="currentColor"/>
</g>
<defs>
<clipPath id="clip0_206_83">
<rect width="16" height="16" fill="white"/>
</clipPath>
</defs>
</svg>
