<svg width="100%" height="100%" viewBox="0 0 16 16" fill="none" xmlns="http://www.w3.org/2000/svg">
<path d="M2.75 2C2.28587 2 1.84075 2.18061 1.51256 2.5021C1.18437 2.82359 1 3.25963 1 3.71429L1 10.58C1.00231 11.0332 1.18771 11.467 1.51565 11.7866C1.84358 12.1063 2.28738 12.2857 2.75 12.2857H7.5625C7.67853 12.2857 7.78981 12.2406 7.87186 12.1602C7.95391 12.0798 8 11.9708 8 11.8571C8 11.7435 7.95391 11.6345 7.87186 11.5541C7.78981 11.4737 7.67853 11.4286 7.5625 11.4286H2.75C2.55739 11.4286 2.37016 11.3664 2.21733 11.2515C2.06451 11.1367 1.95464 10.9757 1.90475 10.7934L6.83975 7.81829L8 8.49971L14.125 4.89971V7.57143C14.125 7.68509 14.1711 7.7941 14.2531 7.87448C14.3352 7.95485 14.4465 8 14.5625 8C14.6785 8 14.7898 7.95485 14.8719 7.87448C14.9539 7.7941 15 7.68509 15 7.57143V3.71429C15 3.25963 14.8156 2.82359 14.4874 2.5021C14.1592 2.18061 13.7141 2 13.25 2H2.75ZM5.9945 7.32114L1.875 9.80429V4.89971L5.9945 7.32114ZM1.875 3.90029V3.71429C1.875 3.48696 1.96719 3.26894 2.13128 3.10819C2.29538 2.94745 2.51794 2.85714 2.75 2.85714H13.25C13.4821 2.85714 13.7046 2.94745 13.8687 3.10819C14.0328 3.26894 14.125 3.48696 14.125 3.71429V3.90029L8 7.50029L1.875 3.90029Z" fill="currentColor"/>
<path d="M13.4661 12.5163C14.3499 12.5163 14.8547 11.7817 14.8547 10.7806V10.6006C14.8547 9.22571 13.81 8 11.955 8H11.9244C10.1175 8 8.875 9.16571 8.875 10.9417V11.1251C8.875 12.9886 10.1332 14 11.8132 14H11.8518C12.3715 14 12.7425 13.9366 12.9341 13.85V13.2243C12.7197 13.3186 12.3452 13.3786 11.9016 13.3786H11.8631C10.6959 13.3786 9.6135 12.7031 9.6135 11.1029V10.9683C9.6135 9.548 10.5393 8.63343 11.9235 8.63343H11.9585C13.3016 8.63343 14.132 9.53343 14.132 10.6271V10.7283C14.132 11.564 13.8485 11.9197 13.5729 11.9197C13.3699 11.9197 13.2141 11.7929 13.2141 11.5597V9.68257H12.4214V10.1703H12.3951C12.3216 9.91486 12.0731 9.63029 11.5604 9.63029C10.8796 9.63029 10.4588 10.106 10.4588 10.8303V11.2829C10.4588 12.0474 10.8875 12.512 11.5612 12.512C11.9734 12.512 12.3452 12.3174 12.4485 11.9609H12.4861C12.5894 12.3209 13.026 12.5163 13.4661 12.5163ZM11.3197 11.1551V10.9606C11.3197 10.4926 11.5184 10.2826 11.8211 10.2826C12.081 10.2826 12.3216 10.4471 12.3216 10.8894V11.204C12.3216 11.6951 12.1002 11.8417 11.8281 11.8417C11.5184 11.8417 11.3197 11.6574 11.3197 11.156V11.1551Z" fill="currentColor"/>
</svg>
