<svg width="100%" height="100%" viewBox="0 0 16 16" fill="none" xmlns="http://www.w3.org/2000/svg">
<g clip-path="url(#clip0_206_75)">
<path d="M10.8541 7.14601C10.9007 7.19245 10.9376 7.24763 10.9629 7.30837C10.9881 7.36912 11.001 7.43424 11.001 7.50001C11.001 7.56578 10.9881 7.6309 10.9629 7.69164C10.9376 7.75239 10.9007 7.80756 10.8541 7.85401L7.85414 10.854C7.8077 10.9006 7.75252 10.9375 7.69178 10.9627C7.63103 10.9879 7.56591 11.0009 7.50014 11.0009C7.43438 11.0009 7.36925 10.9879 7.30851 10.9627C7.24776 10.9375 7.19259 10.9006 7.14614 10.854L5.64614 9.35401C5.59966 9.30752 5.56278 9.25233 5.53762 9.19159C5.51246 9.13085 5.49951 9.06575 5.49951 9.00001C5.49951 8.93426 5.51246 8.86916 5.53762 8.80842C5.56278 8.74769 5.59966 8.6925 5.64614 8.64601C5.74003 8.55212 5.86737 8.49938 6.00014 8.49938C6.06589 8.49938 6.13099 8.51233 6.19173 8.53749C6.25247 8.56264 6.30766 8.59952 6.35414 8.64601L7.50014 9.79301L10.1461 7.14601C10.1926 7.09945 10.2478 7.0625 10.3085 7.0373C10.3693 7.01209 10.4344 6.99911 10.5001 6.99911C10.5659 6.99911 10.631 7.01209 10.6918 7.0373C10.7525 7.0625 10.8077 7.09945 10.8541 7.14601Z" fill="currentColor"/>
<path d="M3.5 0C3.63261 0 3.75979 0.0526784 3.85355 0.146447C3.94732 0.240215 4 0.367392 4 0.5V1H12V0.5C12 0.367392 12.0527 0.240215 12.1464 0.146447C12.2402 0.0526784 12.3674 0 12.5 0C12.6326 0 12.7598 0.0526784 12.8536 0.146447C12.9473 0.240215 13 0.367392 13 0.5V1H14C14.5304 1 15.0391 1.21071 15.4142 1.58579C15.7893 1.96086 16 2.46957 16 3V14C16 14.5304 15.7893 15.0391 15.4142 15.4142C15.0391 15.7893 14.5304 16 14 16H2C1.46957 16 0.960859 15.7893 0.585786 15.4142C0.210714 15.0391 0 14.5304 0 14V3C0 2.46957 0.210714 1.96086 0.585786 1.58579C0.960859 1.21071 1.46957 1 2 1H3V0.5C3 0.367392 3.05268 0.240215 3.14645 0.146447C3.24021 0.0526784 3.36739 0 3.5 0ZM1 4V14C1 14.2652 1.10536 14.5196 1.29289 14.7071C1.48043 14.8946 1.73478 15 2 15H14C14.2652 15 14.5196 14.8946 14.7071 14.7071C14.8946 14.5196 15 14.2652 15 14V4H1Z" fill="currentColor"/>
</g>
<defs>
<clipPath id="clip0_206_75">
<rect width="16" height="16" fill="white"/>
</clipPath>
</defs>
</svg>
