<svg width="100%" height="100%" viewBox="0 0 16 16" fill="none" xmlns="http://www.w3.org/2000/svg">
<path d="M0.5 9.89999C0.632608 9.89999 0.759785 9.95267 0.853553 10.0464C0.947322 10.1402 1 10.2674 1 10.4V12.9C1 13.1652 1.10536 13.4196 1.29289 13.6071C1.48043 13.7946 1.73478 13.9 2 13.9H14C14.2652 13.9 14.5196 13.7946 14.7071 13.6071C14.8946 13.4196 15 13.1652 15 12.9V10.4C15 10.2674 15.0527 10.1402 15.1464 10.0464C15.2402 9.95267 15.3674 9.89999 15.5 9.89999C15.6326 9.89999 15.7598 9.95267 15.8536 10.0464C15.9473 10.1402 16 10.2674 16 10.4V12.9C16 13.4304 15.7893 13.9391 15.4142 14.3142C15.0391 14.6893 14.5304 14.9 14 14.9H2C1.46957 14.9 0.960859 14.6893 0.585786 14.3142C0.210714 13.9391 0 13.4304 0 12.9V10.4C0 10.2674 0.0526784 10.1402 0.146447 10.0464C0.240215 9.95267 0.367392 9.89999 0.5 9.89999Z" fill="currentColor"/>
<path d="M7.64614 1.14601C7.69259 1.09945 7.74776 1.0625 7.80851 1.0373C7.86925 1.01209 7.93438 0.999115 8.00014 0.999115C8.06591 0.999115 8.13103 1.01209 8.19178 1.0373C8.25252 1.0625 8.3077 1.09945 8.35414 1.14601L11.3541 4.14601C11.448 4.2399 11.5008 4.36723 11.5008 4.50001C11.5008 4.63278 11.448 4.76012 11.3541 4.85401C11.2603 4.9479 11.1329 5.00064 11.0001 5.00064C10.8674 5.00064 10.74 4.9479 10.6461 4.85401L8.50014 2.70701V11.5C8.50014 11.6326 8.44747 11.7598 8.3537 11.8536C8.25993 11.9473 8.13275 12 8.00014 12C7.86754 12 7.74036 11.9473 7.64659 11.8536C7.55282 11.7598 7.50014 11.6326 7.50014 11.5V2.70701L5.35414 4.85401C5.30766 4.9005 5.25247 4.93737 5.19173 4.96253C5.13099 4.98769 5.06589 5.00064 5.00014 5.00064C4.9344 5.00064 4.8693 4.98769 4.80856 4.96253C4.74782 4.93737 4.69263 4.9005 4.64614 4.85401C4.59966 4.80752 4.56278 4.75233 4.53762 4.69159C4.51246 4.63085 4.49951 4.56575 4.49951 4.50001C4.49951 4.43426 4.51246 4.36916 4.53762 4.30843C4.56278 4.24769 4.59966 4.1925 4.64614 4.14601L7.64614 1.14601Z" fill="currentColor"/>
</svg>
